CMC_leg_t_102_r_0.8196_states
version=1
nRows=6
nColumns=49
inDegrees=yes

# SIMM Motion File Header:
name CMC_leg_t_102_r_0.8196_states
datacolumns 49
datarows 6
otherdata 1
range 0.46826000 0.47025952
endheader
time	/jointset/bb/crank_angle/value	/jointset/bb/crank_angle/speed	/jointset/spindle/pedal_angle_r/value	/jointset/spindle/pedal_angle_r/speed	/jointset/ground_pelvis/pelvis_tilt/value	/jointset/ground_pelvis/pelvis_tilt/speed	/jointset/ground_pelvis/pelvis_list/value	/jointset/ground_pelvis/pelvis_list/speed	/jointset/ground_pelvis/pelvis_rotation/value	/jointset/ground_pelvis/pelvis_rotation/speed	/jointset/ground_pelvis/pelvis_tx/value	/jointset/ground_pelvis/pelvis_tx/speed	/jointset/ground_pelvis/pelvis_ty/value	/jointset/ground_pelvis/pelvis_ty/speed	/jointset/ground_pelvis/pelvis_tz/value	/jointset/ground_pelvis/pelvis_tz/speed	/jointset/hip_r/hip_angle_r/value	/jointset/hip_r/hip_angle_r/speed	/jointset/hip_r/hip_adduction_r/value	/jointset/hip_r/hip_adduction_r/speed	/jointset/hip_r/hip_rotation_r/value	/jointset/hip_r/hip_rotation_r/speed	/jointset/knee_r/knee_angle_r/value	/jointset/knee_r/knee_angle_r/speed	/jointset/knee_r/tib_tx_r/value	/jointset/knee_r/tib_tx_r/speed	/jointset/knee_r/tib_ty_r/value	/jointset/knee_r/tib_ty_r/speed	/jointset/tib_pat_r/pat_angle_r/value	/jointset/tib_pat_r/pat_angle_r/speed	/jointset/tib_pat_r/pat_tx_r/value	/jointset/tib_pat_r/pat_tx_r/speed	/jointset/tib_pat_r/pat_ty_r/value	/jointset/tib_pat_r/pat_ty_r/speed	/jointset/ankle_r/ankle_angle_r/value	/jointset/ankle_r/ankle_angle_r/speed	/jointset/subtalar_r/subtalar_angle_r/value	/jointset/subtalar_r/subtalar_angle_r/speed	/jointset/mtp_r/mtp_angle_r/value	/jointset/mtp_r/mtp_angle_r/speed	/forceset/bifemlh_r/activation	/forceset/bifemlh_r/fiber_length	/forceset/bifemsh_r/activation	/forceset/bifemsh_r/fiber_length	/forceset/glut_max2_r/activation	/forceset/glut_max2_r/fiber_length	/forceset/vas_int_r/activation	/forceset/vas_int_r/fiber_length
      0.46826000	   -213.18238324	  -1028.51703218	    203.40366037	    616.94986647	     -0.00000000	     -0.00000000	      0.00000000	      0.00000000	      0.00000000	      0.00000000	      0.00000000	      0.00000000	      0.00000000	     -0.00000000	      0.00000000	     -0.00000000	     39.04117772	    141.00321688	      4.37606786	     -1.07097539	     -0.04083479	    -42.02895966	    -70.03122886	   -547.62980378	      0.00515066	      0.00018249	     -0.47914724	     -0.17946481	     17.52027847	      3.16244419	      0.03973093	     -0.17488142	     -0.02259415	      0.01409914	     21.65453721	     -3.40129725	      0.00000000	      0.00000000	    -86.47707827	    661.91524215	      0.03676139	      0.10998431	      0.06324024	      0.16075373	      0.02005588	      0.12896542	      0.02005588	      0.13584523
      0.46860756	   -213.53946943	  -1026.25490356	    203.61795553	    616.16566809	     -0.00000000	     -0.00000000	      0.00000000	      0.00000000	      0.00000000	      0.00000000	      0.00000000	      0.00000000	      0.00000000	     -0.00000000	      0.00000000	     -0.00000000	     39.09033804	    141.87624053	      4.37569174	     -1.09329779	     -0.05543778	    -42.00039584	    -70.22156339	   -547.60228429	      0.00515061	     -0.00051016	     -0.47920965	     -0.17963947	     17.52136013	      3.06201484	      0.03967010	     -0.17514341	     -0.02258929	      0.01387820	     21.65345715	     -2.81386507	      0.00000000	      0.00000000	    -86.24806436	    655.89095134	      0.03668074	      0.10993333	      0.06318797	      0.16065477	      0.02005562	      0.12900196	      0.02005562	      0.13595256
      0.46895513	   -213.89576892	  -1023.98483916	    203.83198030	    615.39073428	     -0.00000000	     -0.00000000	      0.00000000	      0.00000000	      0.00000000	      0.00000000	      0.00000000	      0.00000000	      0.00000000	     -0.00000000	      0.00000000	     -0.00000000	     39.13979909	    142.73293885	      4.37530788	     -1.11554309	     -0.07003055	    -41.96994240	    -70.41188285	   -547.54023909	      0.00515031	     -0.00120255	     -0.47927211	     -0.17980113	     17.52240719	      2.96336542	      0.03960918	     -0.17539548	     -0.02258450	      0.01365247	     21.65258107	     -2.22753446	      0.00000000	      0.00000000	    -86.02114840	    649.83877376	      0.03660049	      0.10988291	      0.06313598	      0.16055598	      0.02005537	      0.12903874	      0.02005537	      0.13608377
      0.46950069	   -214.45343528	  -1020.43342366	    204.16738292	    614.20880613	     -0.00000000	     -0.00000000	      0.00000000	      0.00000000	      0.00000000	      0.00000000	      0.00000000	      0.00000000	      0.00000000	     -0.00000000	      0.00000000	     -0.00000000	     39.21802776	    144.04914420	      4.37468980	     -1.15032473	     -0.09291369	    -41.91956742	    -70.71055564	   -547.38931008	      0.00514936	     -0.00228848	     -0.47937027	     -0.18003389	     17.52398243	      2.81225005	      0.03951339	     -0.17577616	     -0.02257715	      0.01328901	     21.65161633	     -1.30973718	      0.00000000	      0.00000000	    -85.66922697	    640.30819640	      0.03647535	      0.10980491	      0.06305492	      0.16040127	      0.02005497	      0.12909695	      0.02005497	      0.13627329
      0.46988011	   -214.84013690	  -1017.95233550	    204.40027162	    613.39914728	     -0.00000000	     -0.00000000	      0.00000000	      0.00000000	      0.00000000	      0.00000000	      0.00000000	      0.00000000	      0.00000000	     -0.00000000	      0.00000000	     -0.00000000	     39.27285268	    144.94169392	      4.37424878	     -1.17438885	     -0.10881170	    -41.88194580	    -70.91821783	   -547.23620233	      0.00514834	     -0.00304281	     -0.47943861	     -0.18017742	     17.52502995	      2.70981930	      0.03944665	     -0.17602693	     -0.02257216	      0.01302952	     21.65124017	     -0.67337219	      0.00000000	      0.00000000	    -85.42754519	    633.64301240	      0.03638890	      0.10975148	      0.06299894	      0.16029395	      0.02005469	      0.12913778	      0.02005469	      0.13643749
      0.47025952	   -215.22589754	  -1015.48682603	    204.63285622	    612.61396995	     -0.00000000	     -0.00000000	      0.00000000	      0.00000000	      0.00000000	      0.00000000	      0.00000000	      0.00000000	      0.00000000	     -0.00000000	      0.00000000	     -0.00000000	     39.32801305	    145.81935778	      4.37379864	     -1.19837249	     -0.12469514	    -41.84327695	    -71.12581570	   -547.05763981	      0.00514705	     -0.00379624	     -0.47950699	     -0.18031048	     17.52603903	      2.60967234	      0.03937981	     -0.17627067	     -0.02256727	      0.01276494	     21.65110513	     -0.03875664	      0.00000000	      0.00000000	    -85.18839606	    626.96920221	      0.03630292	      0.10969873	      0.06291351	      0.16018687	      0.02005442	      0.12917887	      0.02005442	      0.13656023
